<?xml version="1.0" encoding="UTF-8"?>
<svg width="130px" height="38px" viewBox="0 0 130 38" version="1.1" xmlns="http://www.w3.org/2000/svg" xmlns:xlink="http://www.w3.org/1999/xlink">
    <!-- Generator: Sketch 62 (91390) - https://sketch.com -->
    <title>Combined Shape</title>
    <desc>Created with Sketch.</desc>
    <g id="desktop_temp_hsteps" stroke="none" stroke-width="1" fill="none" fill-rule="evenodd">
        <g id="Step_1-alt" transform="translate(-45.000000, -42.000000)" fill="#FFFFFF" fill-rule="nonzero">
            <g id="left-panel">
                <g id="Group-18" transform="translate(45.000000, 42.000000)">
                    <path d="M99.5488281,30.890625 L101.375,36.046875 L103.191406,30.890625 L105.115234,30.890625 L105.115234,38 L103.645508,38 L103.645508,36.0566406 L103.791992,32.7021484 L101.873047,38 L100.867187,38 L98.953125,32.7070313 L99.0996094,36.0566406 L99.0996094,38 L97.6347656,38 L97.6347656,30.890625 L99.5488281,30.890625 Z M113.604492,30.890625 L113.604492,32.0771484 L111.426758,32.0771484 L111.426758,38 L109.961914,38 L109.961914,32.0771484 L107.813477,32.0771484 L107.813477,30.890625 L113.604492,30.890625 Z M118.353516,30.890625 L120.179687,36.046875 L121.996094,30.890625 L123.919922,30.890625 L123.919922,38 L122.450195,38 L122.450195,36.0566406 L122.59668,32.7021484 L120.677734,38 L119.671875,38 L117.757812,32.7070313 L117.904297,36.0566406 L117.904297,38 L116.439453,38 L116.439453,30.890625 L118.353516,30.890625 Z M112.733326,3.32682927 C112.987929,3.32682927 113.19624,3.53679745 113.19624,3.79342524 L113.19624,10.6757158 L119.390022,3.64411453 C119.56593,3.44347826 119.815903,3.33149523 120.084393,3.33149523 L123.778442,3.33149523 C123.908058,3.33149523 124.009899,3.43414634 124.009899,3.56479321 C124.009899,3.62078473 123.991383,3.67677625 123.94972,3.71876988 L116.894919,11.7302227 L124.023787,21.6267232 C124.097853,21.7293743 124.074707,21.878685 123.972866,21.9533404 C123.931204,21.9813362 123.884913,22 123.838621,22 L120.139942,22 C119.843678,22 119.56593,21.8553552 119.390022,21.6173913 L113.19624,13.0180276 L113.19624,21.533404 C113.19624,21.7900318 112.987929,22 112.733326,22 L109.960474,22 C109.705872,22 109.497561,21.7900318 109.497561,21.533404 L109.497561,3.80275716 C109.497561,3.54612937 109.705872,3.33616119 109.960474,3.33616119 L112.733326,3.33616119 L112.733326,3.32682927 Z M16.9472635,18.2112407 C17.5444219,18.2112407 17.7619912,18.2485684 17.993448,18.3232238 C18.2249047,18.3978791 18.4239576,18.5191941 18.6044938,18.6871686 C18.7850301,18.8551432 18.919275,19.0277837 19.2062814,19.5550371 L20.3496777,21.650053 C20.4098565,21.7620361 20.3728234,21.9066808 20.257095,21.9673383 C20.2246911,21.9860021 20.1830289,21.995334 20.1459958,21.995334 L8.30929744,21.995334 L9.85542855,19.4617179 C10.1563223,18.9671262 10.2951964,18.8038176 10.4711035,18.6498409 C10.6470106,18.4958643 10.8414343,18.3838812 11.0682619,18.3138918 C11.2904604,18.2439024 11.4987715,18.2112407 12.0774134,18.2112407 L16.9472635,18.2112407 Z M5.77253142,11.1796394 L7.50845707,14.0352068 C7.8556422,14.6091198 7.87415874,15.3323436 7.54549015,15.9202545 L4.71708863,21.0341463 C4.38842004,21.6267232 3.77274508,21.9906681 3.10152049,21.9906681 L0.231456753,21.995334 C0.101840971,21.995334 -1.59872116e-13,21.8926829 -1.59872116e-13,21.7620361 C-1.59872116e-13,21.7247084 0.00925827013,21.6827147 0.0277748104,21.650053 L5.77253142,11.1796394 Z M61.4147349,3.32682927 C61.6693373,3.32682927 61.8776484,3.53679745 61.8776484,3.79342524 L61.8776484,18.2579003 L67.2335577,18.2579003 C67.793683,18.2579003 68.3214044,18.5098621 68.6732187,18.9484624 L70.8165082,21.6127253 C70.8952035,21.7107105 70.8813161,21.8600212 70.7841043,21.9393425 C70.742442,21.9720042 70.6915216,21.9906681 70.6359719,21.9906681 L58.641883,21.9906681 C58.3872806,21.9906681 58.1789695,21.7806999 58.1789695,21.5240721 L58.1789695,3.79342524 C58.1789695,3.53679745 58.3872806,3.32682927 58.641883,3.32682927 L61.4147349,3.32682927 Z M78.519389,3.32682927 C83.6253249,3.32682927 87.7637717,7.5028632 87.7637717,12.6587487 C87.7637717,17.8146341 83.6253249,21.9906681 78.519389,21.9906681 C73.413453,21.9906681 69.2750062,17.8146341 69.2750062,12.6587487 C69.2750062,7.50752916 73.413453,3.32682927 78.519389,3.32682927 Z M98.4015241,3.32682927 C103.50746,3.32682927 107.645907,7.5028632 107.645907,12.6587487 C107.645907,17.8146341 103.50746,21.9906681 98.4015241,21.9906681 C93.2955881,21.9906681 89.1571375,17.8146341 89.1571375,12.6587487 C89.1525122,7.50752916 93.2909589,3.32682927 98.4015241,3.32682927 Z M31.4503436,3.32682927 C32.2465549,3.32682927 33.0149913,3.42481442 33.7510238,3.62078473 C34.4870562,3.81675504 35.1351351,4.12004242 35.6952605,4.53997879 C36.2553858,4.9552492 36.6997828,5.47783669 37.0284514,6.10774125 C37.35712,6.73764581 37.5237688,7.48419936 37.5237688,8.35206787 C37.5237688,9.3552492 37.2599081,10.2137858 36.7368159,10.9276776 C36.2090945,11.6415695 35.4499163,12.0988335 34.4500231,12.3041357 L34.4500231,12.3787911 C34.9916319,12.4487805 35.473062,12.6074231 35.885055,12.8640509 C36.3016772,13.1206787 36.6534914,13.433298 36.9404978,13.8065748 C37.2275042,14.1798515 37.4497027,14.6044539 37.6024641,15.0803818 C37.7552256,15.5563097 37.8292917,16.0555673 37.8292917,16.5828208 C37.8292917,17.483351 37.6533846,18.2718982 37.3061995,18.9531283 C36.9590144,19.6343584 36.4914717,20.1989396 35.9082007,20.6468717 C35.3249297,21.0948038 34.6351885,21.4307529 33.8482356,21.654719 C33.0612826,21.8740191 32.2234092,21.9860021 31.3438735,21.9860021 C29.7329345,21.9860021 28.3488231,21.6127253 27.1869102,20.8661718 C26.6175266,20.5022269 26.1453548,20.030965 25.7657658,19.457052 C25.566713,19.1537646 25.3908058,18.8224814 25.2426735,18.4632025 C25.1778656,18.3092259 25.1037995,18.0852598 25.020475,17.8006363 C24.9464089,17.5533404 25.0852829,17.2920467 25.3306271,17.2220573 L25.3584019,17.2127253 L28.5108429,16.4708378 C28.7330413,16.4195122 28.959869,16.5361612 29.0431934,16.7507953 C29.270021,17.3153765 29.5014778,17.7026511 29.7283054,17.9079533 C30.1449275,18.2812301 30.7606025,18.4678685 31.5707011,18.4678685 C32.3993163,18.4678685 33.0149913,18.2532344 33.4130969,17.8193001 C33.8112025,17.3853659 34.0102553,16.8301166 34.0102553,16.1488865 C34.0102553,15.6402969 33.9037852,15.2436903 33.690845,14.9637328 C33.4779048,14.6837752 33.2047858,14.473807 32.8622298,14.3384942 C32.524303,14.2031813 32.1400847,14.12386 31.7188335,14.0958643 C31.292953,14.0725345 30.8717017,14.0585366 30.4458213,14.0585366 L30.0199409,14.0585366 C29.7653385,14.0585366 29.5570274,13.8485684 29.5570274,13.5919406 L29.5570274,11.2123012 C29.5570274,10.9556734 29.7653385,10.7457052 30.0199409,10.7457052 L30.8022647,10.7457052 C31.1587081,10.7457052 31.5058932,10.7223754 31.8438201,10.6710498 C32.181747,10.6197243 32.491899,10.5217391 32.7742763,10.3770944 C33.0520244,10.2324496 33.278852,10.0271474 33.45013,9.76585366 C33.621408,9.50455992 33.7047324,9.1592789 33.7047324,8.73467656 C33.7047324,8.18875928 33.4871631,7.74082715 33.0566535,7.38154825 C32.6261439,7.02226935 32.0937934,6.84496288 31.4688602,6.84496288 C30.8763309,6.84496288 30.3856426,7.00827147 29.9921661,7.33022269 C29.783855,7.5028632 29.5801731,7.7921527 29.3764911,8.20275716 C29.2839084,8.39406151 29.0755973,8.49671262 28.8672863,8.45471898 L25.534309,7.76415695 C25.2843357,7.71283139 25.122316,7.46553552 25.1732365,7.2135737 L25.1871239,7.15758218 C25.2704483,6.91028632 25.3398853,6.71898197 25.4046932,6.58366914 C25.5574547,6.24772004 25.737991,5.9397667 25.9416729,5.65980912 C26.3490368,5.10922587 26.8304668,4.66129374 27.3905922,4.32067869 C27.9646049,3.98472959 28.5895382,3.73276776 29.2746501,3.56945917 C29.9643913,3.41081654 30.6865363,3.32682927 31.4503436,3.32682927 Z M48.0041306,3.32216331 L48.0041306,3.32682927 C52.0916569,3.32682927 55.4014884,6.66299046 55.4014884,10.7830329 L55.4014884,14.5297985 C55.4014884,18.6498409 52.0916569,21.9860021 48.0041306,21.9860021 L41.0696863,21.9860021 C40.8336004,21.9860021 40.6345476,21.8040297 40.6114019,21.5753977 L40.6067728,21.5194062 L40.6067728,3.78875928 C40.6067728,3.5321315 40.8150839,3.32216331 41.0696863,3.32216331 L48.0041306,3.32216331 Z M47.7217534,7.05959703 L44.3054517,7.05959703 L44.3054517,18.2579003 L47.7217534,18.2579003 C49.7678311,18.2579003 51.4250614,16.5874867 51.4250614,14.5251326 L51.4250614,10.7923648 C51.4250614,8.73467656 49.7678311,7.05959703 47.7217534,7.05959703 Z M78.519389,7.05959703 C75.4549015,7.05959703 72.9736851,9.56521739 72.9736851,12.6587487 C72.9736851,15.75228 75.4595307,18.2579003 78.519389,18.2579003 C81.5838764,18.2579003 84.0650992,15.75228 84.0650992,12.6587487 C84.0697219,9.56988335 81.5838764,7.05959703 78.519389,7.05959703 Z M98.4015241,7.05959703 C95.3370366,7.05959703 92.8558202,9.56521739 92.8558202,12.6587487 C92.8558202,15.75228 95.3416658,18.2579003 98.4015241,18.2579003 C101.466011,18.2579003 103.947228,15.75228 103.947228,12.6587487 C103.947228,9.56988335 101.466011,7.05959703 98.4015241,7.05959703 Z M10.3090838,3.35482503 C10.3461169,3.37815483 10.3785208,3.40615058 10.4016665,3.44814422 L16.4010255,14.4271474 L13.2856176,14.4271474 C12.6236513,14.4271474 12.0126055,14.0725345 11.6839369,13.4939555 L8.60093295,7.8621421 C8.27689349,7.29756098 8.27226436,6.59766702 8.58241641,6.02841994 L9.9943026,3.44814422 C10.0544814,3.33616119 10.1979845,3.29416755 10.3090838,3.35482503 Z M127.903002,2.22044605e-13 C127.930777,2.22044605e-13 127.949293,0.0139978791 127.96781,0.0373276776 L128.643663,1.09650053 C128.652922,1.11049841 128.657551,1.11516437 128.666809,1.10583245 L129.35655,0.0373276776 C129.370438,0.0139978791 129.393583,2.22044605e-13 129.421358,2.22044605e-13 L129.94908,2.22044605e-13 C129.962967,2.22044605e-13 129.976854,0.0046659597 129.986113,0.0139978791 C129.995371,0.0233297985 130,0.0373276776 130,0.0513255567 L130,2.80424178 C130,2.81823966 129.995371,2.83223754 129.986113,2.84156946 C129.976854,2.85090138 129.962967,2.85556734 129.94908,2.85556734 L129.421358,2.85556734 C129.407471,2.85556734 129.393583,2.85090138 129.384325,2.84156946 C129.375067,2.83223754 129.370438,2.81823966 129.370438,2.80424178 L129.370438,1.12449629 C129.370438,1.11049841 129.365808,1.10583245 129.361179,1.10583245 C129.35655,1.10583245 129.347292,1.11049841 129.342663,1.11983033 L128.865862,1.8757158 C128.851975,1.8990456 128.828829,1.91304348 128.801054,1.91304348 L128.532564,1.91304348 C128.504789,1.91304348 128.486273,1.8990456 128.467756,1.8757158 L127.990955,1.11983033 C127.986326,1.11049841 127.977068,1.10583245 127.972439,1.11049841 C127.96781,1.11049841 127.963181,1.11983033 127.963181,1.12916225 L127.963181,2.80890774 C127.963181,2.82290562 127.958551,2.8369035 127.949293,2.84623542 C127.940035,2.85556734 127.926147,2.8602333 127.91226,2.8602333 L127.384539,2.8602333 C127.370651,2.8602333 127.356764,2.85556734 127.347506,2.84623542 C127.338247,2.8369035 127.333618,2.82290562 127.333618,2.80890774 L127.333618,0.0559915164 C127.333618,0.0419936373 127.338247,0.0279957582 127.347506,0.0186638388 C127.356764,0.00933191941 127.361393,2.22044605e-13 127.37528,2.22044605e-13 L127.903002,2.22044605e-13 Z M126.699427,2.22044605e-13 C126.713314,2.22044605e-13 126.727202,0.0046659597 126.73646,0.0139978791 C126.745718,0.0233297985 126.750347,0.0373276776 126.750347,0.0513255567 L126.750347,0.499257688 C126.750347,0.513255567 126.745718,0.527253446 126.73646,0.536585366 C126.727202,0.545917285 126.713314,0.550583245 126.699427,0.550583245 L125.889328,0.550583245 C125.875441,0.550583245 125.866182,0.559915164 125.866182,0.573913043 L125.866182,2.80424178 C125.866182,2.81823966 125.861553,2.83223754 125.852295,2.84156946 C125.843037,2.85090138 125.829149,2.85556734 125.815262,2.85556734 L125.287541,2.85556734 C125.273653,2.85556734 125.259766,2.85090138 125.250507,2.84156946 C125.241249,2.83223754 125.23662,2.81823966 125.23662,2.80424178 L125.23662,0.578579003 C125.23662,0.564581124 125.227362,0.555249205 125.213474,0.555249205 L124.426521,0.555249205 C124.412634,0.555249205 124.398747,0.550583245 124.389488,0.541251326 C124.38023,0.531919406 124.375601,0.517921527 124.375601,0.503923648 L124.375601,0.0559915164 C124.375601,0.0419936373 124.38023,0.0279957582 124.389488,0.0186638388 C124.398747,0.00933191941 124.408005,2.22044605e-13 124.421892,2.22044605e-13 L126.699427,2.22044605e-13 Z" id="Combined-Shape"></path>
                </g>
            </g>
        </g>
    </g>
</svg>